PathFileType	4	(X/Y/Z)	D:\TRACE\spotREDO_2-26-24\spot_justBody_Motion_3_5-platform.trc
DataRate	CameraRate	NumFrames	NumMarkers	Units	OrigDataRate	OrigDataStartFrame	OrigNumFrames
100.00	100.00	      36	5	mm	100.00	1	      7000
Frame#	Time	Left_Front			Right_Front			Left_Aft			Right_Aft			Post			
		X1	Y1	Z1	X2	Y2	Z2	X3	Y3	Z3	X4	Y4	Z4	X5	Y5	Z5	

1	0.000	-736.40521	99.38567	-539.16626	678.67487	94.04018	-455.27551	-806.90588	-107.89908	662.02502	763.76227	-101.38329	665.42310	-27.22262	789.18011	-828.31958	
2	0.010	-736.44116	99.40028	-539.14246	678.66534	94.07425	-455.25757	-806.86487	-107.93864	662.02899	763.75513	-101.36069	665.43475	-27.26024	789.18762	-828.25116	
3	0.020	-736.40558	99.42426	-539.16913	678.63580	94.10104	-455.19870	-806.83716	-107.97740	662.05591	763.73145	-101.42602	665.41510	-27.34478	789.20386	-828.22974	
4	0.030	-736.42566	99.44633	-539.16705	678.69427	94.04594	-455.24857	-806.84418	-108.04575	662.00854	763.74194	-101.51268	665.40894	-27.29231	789.19000	-828.21399	
5	0.040	-736.38617	99.41113	-539.15039	678.68103	94.09712	-455.22812	-806.84479	-108.03188	662.02844	763.77808	-101.45094	665.41589	-27.20086	789.17084	-828.23792	
6	0.050	-736.38214	99.39824	-539.15729	678.73059	94.10349	-455.26031	-806.80023	-107.98385	662.05737	763.79730	-101.41403	665.39374	-27.18157	789.18408	-828.25494	
7	0.060	-736.37628	99.41785	-539.15607	678.63867	94.06081	-455.33133	-806.82556	-107.96573	662.01794	763.80005	-101.32249	665.39172	-27.21829	789.19415	-828.25330	
8	0.070	-736.39001	99.39505	-539.17468	678.67169	94.08486	-455.28360	-806.81116	-107.95258	662.02686	763.77332	-101.40909	665.42902	-27.14745	789.11554	-828.32385	
9	0.080	-736.41998	99.39278	-539.12213	678.69293	94.02562	-455.21689	-806.88141	-107.96428	662.06982	763.70856	-101.49148	665.40869	-27.16068	789.14880	-828.26678	
10	0.090	-736.33978	99.39338	-539.15076	678.63672	94.04057	-455.30310	-806.82379	-107.97452	662.06415	763.73657	-101.51746	665.48358	-27.21526	789.09589	-828.42578	
11	0.100	-736.34662	99.36378	-539.18304	678.66724	94.04176	-455.24200	-806.83551	-107.95055	662.01477	763.66437	-101.60024	665.45807	-27.19705	789.14014	-828.51184	
12	0.110	-736.39209	99.41466	-539.13501	678.72845	94.05730	-455.19159	-806.82391	-107.97882	662.06305	763.67169	-101.49796	665.39758	-27.17895	789.16858	-828.54822	
13	0.120	-736.40015	99.44640	-539.14697	678.67621	94.07922	-455.24274	-806.85760	-107.96954	662.03790	763.79797	-101.45585	665.33795	-27.13373	789.21631	-828.51923	
14	0.130	-736.40179	99.41049	-539.16864	678.68182	94.03582	-455.24927	-806.85718	-108.01397	662.07910	763.74731	-101.48370	665.34216	-27.18738	789.19684	-828.46558	
15	0.140	-736.38745	99.40474	-539.15210	678.71228	94.04937	-455.18542	-806.89124	-107.95901	662.05682	763.77722	-101.49632	665.31891	-27.15184	789.19257	-828.36304	
16	0.150	-736.39777	99.43217	-539.17432	678.65039	94.07120	-455.22290	-806.83649	-107.98842	662.01666	763.75763	-101.48755	665.29449	-27.15499	789.15961	-828.29523	
17	0.160	-736.39331	99.41192	-539.13422	678.71246	94.07320	-455.20804	-806.86633	-107.90334	661.97607	763.76892	-101.44807	665.30255	-27.08217	789.13043	-828.26074	
18	0.170	-736.39044	99.39023	-539.12231	678.69202	94.09431	-455.24042	-806.88812	-107.88058	662.05103	763.78687	-101.34615	665.34033	-27.08594	789.15826	-828.22882	
19	0.180	-736.43555	99.42335	-539.14600	678.66486	94.06658	-455.22842	-806.79218	-107.95119	662.05261	763.83252	-101.42616	665.32104	-27.07642	789.05743	-828.23541	
20	0.190	-736.41974	99.38936	-539.15271	678.64716	94.03848	-455.25702	-806.81110	-107.94331	662.07001	763.78564	-101.45771	665.29498	-27.14728	789.04584	-828.22076	
21	0.200	-736.43188	99.34402	-539.12091	678.69904	93.95166	-455.30417	-806.85394	-108.02164	662.04999	763.79401	-101.46147	665.30109	-27.19871	789.07874	-828.27136	
22	0.210	-736.41138	99.42113	-539.19037	678.66193	94.03604	-455.23193	-806.82123	-107.99558	662.03772	763.72858	-101.39652	665.34875	-27.10894	789.11194	-828.36914	
23	0.220	-736.40125	99.43129	-539.14923	678.74432	94.05132	-455.18793	-806.87018	-107.90255	662.05157	763.72247	-101.38187	665.37305	-27.15829	789.17200	-828.44232	
24	0.230	-736.38007	99.45657	-539.13031	678.68262	94.07133	-455.23615	-806.88525	-107.94781	662.03882	763.70276	-101.38144	665.37811	-27.26438	789.23285	-828.50232	
25	0.240	-736.41418	99.44494	-539.12006	678.63324	94.10490	-455.22342	-806.86304	-107.93659	662.06067	763.67755	-101.42870	665.32568	-27.14511	789.25049	-828.51770	
26	0.250	-736.40942	99.38909	-539.15466	678.66870	94.02795	-455.26117	-806.85742	-108.00060	662.03949	763.73730	-101.43541	665.32294	-27.28039	789.21429	-828.48004	
27	0.260	-736.39960	99.41430	-539.15894	678.62231	94.05646	-455.24091	-806.84534	-107.98582	662.04401	763.76312	-101.47793	665.31665	-27.20952	789.15680	-828.44476	
28	0.270	-736.35046	99.37503	-539.16040	678.67450	94.06033	-455.20563	-806.79663	-107.97579	662.04602	763.78870	-101.45001	665.32275	-27.19420	789.16046	-828.38092	
29	0.280	-736.42419	99.42738	-539.14948	678.67957	94.04671	-455.22189	-806.84137	-107.96294	662.05231	763.74951	-101.37051	665.36719	-27.24601	789.15771	-828.27075	
30	0.290	-736.38293	99.40314	-539.15875	678.69672	94.04848	-455.23187	-806.84033	-107.98630	662.02570	763.70532	-101.38415	665.36224	-27.22087	789.14935	-828.23480	
31	0.300	-736.37378	99.36798	-539.16028	678.63177	94.04765	-455.27444	-806.86145	-107.90961	662.07220	763.71136	-101.39931	665.32379	-27.24298	789.11133	-828.21796	
32	0.310	-736.40265	99.40960	-539.17267	678.68079	94.04362	-455.22046	-806.88477	-107.99976	662.05170	763.71271	-101.41161	665.32446	-27.28366	789.12714	-828.18628	
33	0.320	-736.34772	99.42953	-539.18298	678.62408	94.03831	-455.26575	-806.84204	-107.99786	662.00549	763.72394	-101.38971	665.34381	-27.26176	789.15051	-828.25000	
34	0.330	-736.32574	99.41940	-539.18475	678.65063	94.11160	-455.22763	-806.82300	-107.94779	662.04913	763.71570	-101.41668	665.33472	-27.18310	789.21411	-828.26746	
35	0.340	-736.30609	99.42591	-539.20160	678.69818	94.08664	-455.20474	-806.81824	-107.98158	662.06567	763.72021	-101.43485	665.35114	-27.25020	789.26550	-828.30481	
36	0.350	-736.30920	99.42590	-539.18176	678.70410	94.04721	-455.23553	-806.78589	-107.97244	662.00525	763.73602	-101.40563	665.36969	-27.23470	789.20618	-828.35602	
